Coordinates
version=1
nRows=24
nColumns=24
inDegrees=yes

Units are S.I. units (second, meters, Newtons, ...)
Angles are in degrees.

endheader
time	pelvis_tilt	pelvis_list	pelvis_rotation	pelvis_tx	pelvis_ty	pelvis_tz	hip_flexion_r	hip_adduction_r	hip_rotation_r	knee_angle_r	ankle_angle_r	subtalar_angle_r	mtp_angle_r	hip_flexion_l	hip_adduction_l	hip_rotation_l	knee_angle_l	ankle_angle_l	subtalar_angle_l	mtp_angle_l	lumbar_extension	lumbar_bending	lumbar_rotation
      4.66000000	     -1.68786487	      2.37854619	      0.88393819	      1.33729419	      0.95500853	     -0.24052205	     27.81934602	     -4.29248347	     -5.90264604	    -49.04230588	      5.64485638	     -5.60979056	      0.00000000	      2.88366334	      8.37285100	      8.93286488	    -14.58190782	     15.80521391	     -8.27933422	      0.00000000	    -26.69728092	     -5.87132821	     -0.58885009
      4.67000000	     -1.79276127	      2.39012945	      1.33253730	      1.34996948	      0.95493064	     -0.24048622	     28.19236369	     -4.33339559	     -6.52776602	    -45.42183466	      5.99960442	     -4.97023696	      0.00000000	      1.45399949	      8.28403613	      9.45450780	    -13.23305729	     15.66842166	     -8.67320926	      0.00000000	    -26.68337601	     -5.70120173	     -1.00675337
      4.68000000	     -1.83350530	      2.47101786	      1.78485813	      1.36276971	      0.95460011	     -0.24038694	     28.34421166	     -4.43513739	     -7.16921921	    -41.55610505	      6.23200824	     -4.07942008	      0.00000000	     -0.06626750	      8.24497977	      9.87625551	    -11.84828767	     15.46247164	     -9.11589492	      0.00000000	    -26.74896560	     -5.61097799	     -1.46805323
      4.69000000	     -1.86024749	      2.63265979	      2.23427978	      1.37576040	      0.95386610	     -0.24023340	     28.34660359	     -4.60930538	     -7.84838174	    -37.51123219	      6.38844592	     -2.96631745	      0.00000000	     -1.64427746	      8.26740074	     10.25486367	    -10.41308808	     15.29382276	     -9.54542077	      0.00000000	    -26.80713206	     -5.61914451	     -1.94625161
      4.70000000	     -1.80107952	      2.85091983	      2.68369103	      1.38888288	      0.95293239	     -0.24003290	     28.11437881	     -4.81320125	     -8.53677411	    -33.28852207	      6.38708987	     -1.70148642	      0.00000000	     -3.33475075	      8.32488793	     10.54219071	     -8.96342443	     15.03674034	     -9.98427422	      0.00000000	    -26.97814076	     -5.68694219	     -2.44138677
      4.71000000	     -1.71148558	      3.12860512	      3.11536299	      1.40220336	      0.95163854	     -0.23979964	     27.75128348	     -5.05813610	     -9.29408148	    -29.00110886	      6.29255579	     -0.33489625	      0.00000000	     -5.09300169	      8.42068196	     10.77322403	     -7.49101459	     14.82468470	    -10.34303219	      0.00000000	    -27.16066230	     -5.82030357	     -2.97168363
      4.72000000	     -1.55105191	      3.43732249	      3.53743175	      1.41568862	      0.95011904	     -0.23953821	     27.21855869	     -5.30255789	    -10.12286445	    -24.68109936	      6.08677248	      1.02327331	      0.00000000	     -6.92637400	      8.52710449	     10.93084727	     -6.06168988	     14.60123656	    -10.63484663	      0.00000000	    -27.42129240	     -5.98252357	     -3.49370528
      4.73000000	     -1.36036254	      3.77167712	      3.93377057	      1.42933570	      0.94831659	     -0.23922131	     26.61108916	     -5.53744744	    -11.05472478	    -20.45349175	      5.83712820	      2.36406020	      0.00000000	     -8.77165835	      8.64246047	     11.01408305	     -4.71461052	     14.43088762	    -10.79914325	      0.00000000	    -27.70003827	     -6.16966896	     -4.01607303
      4.74000000	     -1.13205176	      4.10819766	      4.29261815	      1.44313111	      0.94628429	     -0.23881454	     25.95699482	     -5.72340017	    -12.06354408	    -16.42285653	      5.58891303	      3.64806943	      0.00000000	    -10.60497855	      8.74657669	     11.04141379	     -3.50609441	     14.32943894	    -10.84122362	      0.00000000	    -28.00937923	     -6.36817252	     -4.51396817
      4.75000000	     -0.94632838	      4.41225444	      4.62865745	      1.45703249	      0.94398519	     -0.23835118	     25.37359487	     -5.83461599	    -13.13779687	    -12.70338559	      5.35613869	      4.88772215	      0.00000000	    -12.28510061	      8.81992981	     10.99823251	     -2.52947578	     14.34653405	    -10.74647221	      0.00000000	    -28.25054965	     -6.53684603	     -4.92711168
      4.76000000	     -0.63771080	      4.73988991	      4.93820733	      1.47095966	      0.94169165	     -0.23772614	     24.68233407	     -5.89568676	    -13.89618242	     -9.37071221	      5.22686621	      5.88118903	      0.00000000	    -13.98029573	      8.89590668	     11.00121114	     -1.79902640	     14.42360404	    -10.58544816	      0.00000000	    -28.66369902	     -6.73449710	     -5.42824056
      4.77000000	     -0.37048243	      4.98162187	      5.18178470	      1.48504946	      0.93923446	     -0.23701523	     24.09268737	     -5.82828902	    -14.33815470	     -6.54279248	      5.15784169	      6.63906791	      0.00000000	    -15.48844517	      8.89990576	     10.99243219	     -1.34935694	     14.62726923	    -10.38851125	      0.00000000	    -28.98161573	     -6.86024866	     -5.78591814
      4.78000000	     -0.09793789	      5.16024756	      5.36285298	      1.49924656	      0.93676530	     -0.23623688	     23.57746493	     -5.68178406	    -14.38479382	     -4.32162813	      5.16439734	      7.10655521	      0.00000000	    -16.83702522	      8.85956932	     10.96080458	     -1.21147659	     14.90118019	    -10.17777963	      0.00000000	    -29.27814028	     -6.93508890	     -6.06382925
      4.79000000	      0.15576598	      5.27767943	      5.55759694	      1.51346526	      0.93437003	     -0.23555138	     23.16543249	     -5.52163259	    -14.09232304	     -2.78343849	      5.22308098	      7.32636563	      0.00000000	    -17.95946114	      8.76913164	     10.99612051	     -1.46406023	     15.27394935	     -9.92827960	      0.00000000	    -29.55870053	     -6.91597798	     -6.34673230
      4.80000000	      0.42842769	      5.31197227	      5.71690640	      1.52778875	      0.93211284	     -0.23493437	     22.84291220	     -5.31763961	    -13.56351131	     -1.99122306	      5.34363043	      7.36763440	      0.00000000	    -18.91940395	      8.61675233	     11.02530024	     -2.05194026	     15.70302712	     -9.66256822	      0.00000000	    -29.83916002	     -6.79402326	     -6.53770529
      4.81000000	      0.72988466	      5.22405734	      5.83236983	      1.54232094	      0.93004793	     -0.23430937	     22.60090809	     -5.01647820	    -12.88702490	     -1.94320504	      5.45596461	      7.19247100	      0.00000000	    -19.73277065	      8.35649089	     10.99635929	     -2.96310929	     16.14484075	     -9.31685814	      0.00000000	    -30.10027738	     -6.53587031	     -6.60148163
      4.82000000	      1.01047751	      5.05480216	      5.89819595	      1.55700542	      0.92811038	     -0.23364561	     22.49199918	     -4.64928049	    -12.12185926	     -2.57293712	      5.41297211	      6.74526672	      0.00000000	    -20.34792471	      8.04048098	     10.92684118	     -4.19817473	     16.58289398	     -8.90950367	      0.00000000	    -30.30065136	     -6.21642480	     -6.57649691
      4.83000000	      1.28670102	      4.75173846	      5.85607604	      1.57193337	      0.92632596	     -0.23287347	     22.49050912	     -4.12866192	    -11.21927265	     -3.77650783	      5.01655882	      5.86672601	      0.00000000	    -20.80614265	      7.63067642	     10.69172363	     -5.69841457	     16.95391186	     -8.39300450	      0.00000000	    -30.43351376	     -5.77729021	     -6.42158620
      4.84000000	      1.58649820	      4.39381991	      5.70049923	      1.58697663	      0.92475200	     -0.23191156	     22.55012403	     -3.51337155	    -10.12228801	     -5.41714166	      4.20355883	      4.43225043	      0.00000000	    -21.12237603	      7.20298485	     10.26536800	     -7.49898811	     17.20188889	     -7.70650127	      0.00000000	    -30.57677653	     -5.32866468	     -6.12598950
      4.85000000	      1.82456537	      3.89485576	      5.53153372	      1.60229278	      0.92334434	     -0.23090443	     22.70153203	     -2.74142823	     -8.98298576	     -7.31274999	      2.90883843	      2.33416124	      0.00000000	    -21.21516981	      6.64489482	      9.71946655	     -9.58218890	     17.30042325	     -6.90267818	      0.00000000	    -30.58507715	     -4.73592721	     -5.76533873
      4.86000000	      2.11733400	      3.38880338	      5.15061956	      1.61760841	      0.92225721	     -0.22951482	     22.86210708	     -1.85929385	     -7.57918408	     -9.40432502	      1.23744883	     -0.26363527	      0.00000000	    -21.17628808	      6.13266202	      8.73467915	    -11.98895846	     17.13550647	     -5.79950232	      0.00000000	    -30.67625063	     -4.23805692	     -5.19746554
      4.87000000	      2.43865274	      2.81439951	      4.61256142	      1.63300238	      0.92148930	     -0.22791350	     23.01813160	     -0.83715050	     -6.09487981	    -11.60924292	     -0.51239987	     -2.99043256	      0.00000000	    -20.98325839	      5.58127449	      7.41902056	    -14.70887958	     16.68026921	     -4.44960548	      0.00000000	    -30.79339551	     -3.72419601	     -4.47886767
      4.88000000	      2.77713152	      2.21678089	      4.04062197	      1.64846282	      0.92108740	     -0.22618796	     23.11681728	      0.24074420	     -4.67257100	    -13.84054817	     -1.94350542	     -5.61599709	      0.00000000	    -20.58647360	      4.97283807	      5.82267421	    -17.79669659	     15.78818871	     -2.92944130	      0.00000000	    -30.93888915	     -3.21303743	     -3.71915252
      4.89000000	      3.13710501	      1.59373944	      3.42116020	      1.66392656	      0.92104386	     -0.22438848	     23.12404970	      1.36542303	     -3.36735486	    -16.04807021	     -2.78062943	     -7.79308635	      0.00000000	    -19.98338162	      4.29426525	      4.02359731	    -21.23684359	     14.36677772	     -1.32844107	      0.00000000	    -31.12253981	     -2.69616924	     -2.91228220
